<svg xmlns="http://www.w3.org/2000/svg" viewBox="0 0 512 512" width="512" height="512">
  <!-- Background -->
  <rect width="512" height="512" rx="120" fill="#4FC3F7"/>
  <!-- Lio mascot simplified -->
  <!-- Corp -->
  <ellipse cx="256" cy="330" rx="110" ry="88" fill="#29B6F6"/>
  <!-- Cap -->
  <circle cx="256" cy="210" r="100" fill="#29B6F6"/>
  <!-- Urechi -->
  <ellipse cx="178" cy="138" rx="36" ry="44" fill="#29B6F6"/>
  <ellipse cx="334" cy="138" rx="36" ry="44" fill="#29B6F6"/>
  <ellipse cx="178" cy="138" rx="22" ry="30" fill="#FF7043" opacity="0.8"/>
  <ellipse cx="334" cy="138" rx="22" ry="30" fill="#FF7043" opacity="0.8"/>
  <!-- Ochi -->
  <circle cx="225" cy="205" r="26" fill="white"/>
  <circle cx="287" cy="205" r="26" fill="white"/>
  <circle cx="231" cy="205" r="15" fill="#212121"/>
  <circle cx="293" cy="205" r="15" fill="#212121"/>
  <circle cx="235" cy="198" r="6" fill="white"/>
  <circle cx="297" cy="198" r="6" fill="white"/>
  <!-- Gura zâmbet -->
  <path d="M 218 238 Q 256 268 294 238" stroke="#212121" stroke-width="8" fill="none" stroke-linecap="round"/>
  <!-- Obraji -->
  <ellipse cx="195" cy="228" rx="22" ry="14" fill="#F8BBD0" opacity="0.7"/>
  <ellipse cx="317" cy="228" rx="22" ry="14" fill="#F8BBD0" opacity="0.7"/>
  <!-- Stea -->
  <text x="340" y="110" font-size="72" fill="#FFD54F">⭐</text>
</svg>
